<svg width="35" height="14" viewBox="0 0 35 14" fill="none" xmlns="http://www.w3.org/2000/svg">
<path d="M0.327065 13V0.757348H2.79203L7.37686 6.83759H6.22654L10.6799 0.757348H13.1449V13H10.5977V3.56741L11.6166 3.79747L6.9003 9.87771H6.57164L2.01967 3.79747L2.87419 3.56741V13H0.327065ZM19.6213 13.1972C18.6682 13.1972 17.8411 12.989 17.1399 12.5727C16.4388 12.1455 15.8965 11.5758 15.513 10.8637C15.1296 10.1516 14.9379 9.36281 14.9379 8.49733C14.9379 7.59899 15.1351 6.79925 15.5295 6.0981C15.9348 5.39696 16.4771 4.84371 17.1563 4.43836C17.8356 4.03301 18.6025 3.83034 19.457 3.83034C20.1691 3.83034 20.799 3.94537 21.3468 4.17543C21.8946 4.39454 22.3547 4.70677 22.7272 5.11212C23.1106 5.51747 23.4009 5.98855 23.5981 6.52536C23.7953 7.05122 23.8939 7.62638 23.8939 8.25084C23.8939 8.42612 23.883 8.60141 23.861 8.7767C23.8501 8.94103 23.8227 9.08345 23.7789 9.20396H17.0577V7.39632H22.3821L21.2153 8.25084C21.3249 7.77976 21.3194 7.36345 21.1989 7.00192C21.0784 6.62944 20.8647 6.33912 20.558 6.13097C20.2622 5.91186 19.8952 5.80231 19.457 5.80231C19.0297 5.80231 18.6627 5.90638 18.356 6.11454C18.0492 6.32269 17.8191 6.62944 17.6658 7.03479C17.5124 7.44014 17.4521 7.93313 17.485 8.51377C17.4412 9.01771 17.5014 9.46141 17.6658 9.84485C17.8301 10.2283 18.0821 10.5296 18.4217 10.7487C18.7613 10.9568 19.1721 11.0609 19.6542 11.0609C20.0924 11.0609 20.4649 10.9733 20.7716 10.798C21.0893 10.6227 21.3358 10.3817 21.5111 10.0749L23.4831 11.0116C23.3078 11.4498 23.0284 11.8333 22.645 12.1619C22.2725 12.4906 21.8288 12.748 21.3139 12.9343C20.799 13.1096 20.2348 13.1972 19.6213 13.1972ZM29.7331 13.1972C28.8566 13.1972 28.0733 12.989 27.3831 12.5727C26.6929 12.1564 26.1452 11.5922 25.7398 10.8801C25.3454 10.168 25.1482 9.37924 25.1482 8.51377C25.1482 7.63734 25.3509 6.84855 25.7562 6.1474C26.1616 5.4353 26.7094 4.8711 27.3996 4.45479C28.0897 4.03849 28.8621 3.83034 29.7166 3.83034C30.3739 3.83034 30.9546 3.95632 31.4585 4.2083C31.9734 4.44932 32.3788 4.79441 32.6746 5.24358L32.2966 5.73657V0.560152H34.7616V13H32.4609V11.3567L32.691 11.8661C32.3843 12.3043 31.968 12.6385 31.4421 12.8685C30.9162 13.0876 30.3466 13.1972 29.7331 13.1972ZM30.0288 10.9787C30.478 10.9787 30.8724 10.8747 31.212 10.6665C31.5516 10.4583 31.8146 10.168 32.0008 9.79555C32.198 9.42306 32.2966 8.9958 32.2966 8.51377C32.2966 8.03173 32.198 7.60447 32.0008 7.23199C31.8146 6.8595 31.5516 6.56918 31.212 6.36103C30.8724 6.15288 30.478 6.0488 30.0288 6.0488C29.5797 6.0488 29.1743 6.15836 28.8128 6.37746C28.4622 6.58562 28.1883 6.87594 27.9911 7.24842C27.7939 7.60995 27.6953 8.03173 27.6953 8.51377C27.6953 8.9958 27.7939 9.42306 27.9911 9.79555C28.1883 10.168 28.4622 10.4583 28.8128 10.6665C29.1743 10.8747 29.5797 10.9787 30.0288 10.9787Z" fill="url(#paint0_linear_815_252)" fill-opacity="0.92"/>
<defs>
<linearGradient id="paint0_linear_815_252" x1="15.0233" y1="51.2558" x2="17.5349" y2="-22.4186" gradientUnits="userSpaceOnUse">
<stop stop-color="white"/>
<stop offset="0.645" stop-color="#0D8BFF"/>
</linearGradient>
</defs>
</svg>
